<?xml version="1.0" encoding="utf-8"?>
<!-- Generator: Adobe Illustrator 24.1.1, SVG Export Plug-In . SVG Version: 6.00 Build 0)  -->
<svg version="1.1" id="Layer_1" xmlns="http://www.w3.org/2000/svg" xmlns:xlink="http://www.w3.org/1999/xlink" x="0px" y="0px"
	 viewBox="0 0 512 512" style="enable-background:new 0 0 512 512;" xml:space="preserve">
<style type="text/css">
	.st0{fill:none;}
</style>
<g>
	<rect id="canvas_background" x="-1" y="-1" class="st0" width="514" height="514"/>
</g>
<g>
	<path id="path2054" d="M18.6,505.4c-12.9-2.3-16.1-10.1-8.5-20.8c9.2-12.9,313.1-452.1,313.1-452.5c0-0.2-20.6-0.4-45.7-0.4
		c-60.5,0-81,2.1-113.4,11.8c-31.8,9.5-61.2,26.7-78.5,45.9c-12,13.4-18.2,26.2-24.2,50.2c-0.4,1.5-2.3,4.1-4.2,5.9
		c-8.3,7.4-23.1,1.3-22.8-9.4c0.1-3.7,13.6-110.6,14.9-118.2c1.1-6,4.9-9.6,11.6-10.8c8.5-1.5,401.3-1.3,408.9,0.1
		c11.7,2.2,14.6,10.4,7.4,20.6C467.8,41,166.7,476.2,165.3,478.4l-1.5,2.5l74.4-0.4c71.7-0.4,74.9-0.5,87.9-2.9
		c55.1-10.3,97.3-35.1,125.9-73.9c13.2-17.9,21.8-36.5,25.9-56.1c1.1-5.4,2.8-11.2,3.7-12.8c3.2-5.6,12-7.2,18.8-3.5
		c8,4.4,8.2,1.2-4.9,85.6c-6.6,42.2-12.5,78.6-13.2,80.9c-0.8,2.4-2.7,5-4.6,6.1c-3.1,1.8-16.8,1.9-229,2.1
		C124.5,506.1,21,505.8,18.6,505.4L18.6,505.4z M286.2,256.3C371.5,133.2,441.3,32.3,441.3,32c0-0.2-19.1-0.3-42.5-0.2l-42.5,0.3
		L202.9,253.4C118.5,375.1,48.7,476,47.7,477.7l-1.8,3.1l42.6-0.3l42.6-0.3L286.2,256.3L286.2,256.3z M457.9,477.7
		c0.9-3.8,7-43.2,7-44.9c0-0.7-5.1,3.6-11.4,9.5c-13,12.3-31.7,26.2-44.5,33c-4.8,2.6-8.8,4.9-8.8,5.1s12.8,0.4,28.5,0.4h28.5
		L457.9,477.7L457.9,477.7z M84.3,54.9c6.6-5,17.3-12.1,23.6-15.9l11.6-6.8l-20.9-0.3c-11.5-0.2-21.5-0.1-22.3,0.2
		c-0.7,0.3-2.1,6.6-2.9,14.2c-0.9,7.6-1.9,14.6-2.2,15.7c-0.3,1.1-0.3,2,0.2,2C71.9,63.9,77.6,59.9,84.3,54.9z"/>
</g>
</svg>
